<svg width="53" height="53" viewBox="0 0 53 53" fill="none" xmlns="http://www.w3.org/2000/svg">
<g clip-path="url(#clip0_34_331)">
<path d="M10.8942 39.3196H41.3974V24.1356C41.3974 15.6753 34.569 8.81646 26.1458 8.81646C17.7226 8.81646 10.8942 15.6753 10.8942 24.1356V39.3196ZM26.1458 4.45886C36.9744 4.45886 45.755 13.2677 45.755 24.1356V43.6772H6.53662V24.1356C6.53662 13.2677 15.3172 4.45886 26.1458 4.45886ZM20.6988 45.856H31.5928C31.5928 47.3006 31.0189 48.6861 29.9974 49.7076C28.9759 50.7291 27.5904 51.303 26.1458 51.303C24.7012 51.303 23.3157 50.7291 22.2942 49.7076C21.2727 48.6861 20.6988 47.3006 20.6988 45.856Z" fill="#A4BADE"/>
</g>
<defs>
<clipPath id="clip0_34_331">
<rect width="52.2911" height="52.2911" fill="white" transform="translate(0 0.101257)"/>
</clipPath>
</defs>
</svg>
