<svg width="53" height="54" viewBox="0 0 53 54" fill="none" xmlns="http://www.w3.org/2000/svg">
<g clip-path="url(#clip0_34_331)">
<path d="M10.8942 40.3196H41.3974V25.1356C41.3974 16.6753 34.569 9.81646 26.1458 9.81646C17.7226 9.81646 10.8942 16.6753 10.8942 25.1356V40.3196ZM26.1458 5.45886C36.9744 5.45886 45.755 14.2677 45.755 25.1356V44.6772H6.53662V25.1356C6.53662 14.2677 15.3172 5.45886 26.1458 5.45886ZM20.6988 46.856H31.5928C31.5928 48.3006 31.0189 49.6861 29.9974 50.7076C28.9759 51.7291 27.5904 52.303 26.1458 52.303C24.7012 52.303 23.3157 51.7291 22.2942 50.7076C21.2727 49.6861 20.6988 48.3006 20.6988 46.856Z" fill="#A4BADE"/>
</g>
<rect x="29" y="3" width="18" height="17" rx="8.5" fill="#EF3561" stroke="#00286B" stroke-width="6"/>
<defs>
<clipPath id="clip0_34_331">
<rect width="52.2911" height="52.2911" fill="white" transform="translate(0 1.10126)"/>
</clipPath>
</defs>
</svg>
